<?xml version="1.0" standalone="no"?>
<!DOCTYPE svg PUBLIC "-//W3C//DTD SVG 20010904//EN"
 "http://www.w3.org/TR/2001/REC-SVG-20010904/DTD/svg10.dtd">
<svg version="1.0" xmlns="http://www.w3.org/2000/svg"
 width="270.000000pt" height="270.000000pt" viewBox="0 0 270.000000 270.000000"
 preserveAspectRatio="xMidYMid meet">
<metadata>
Created by potrace 1.14, written by Peter Selinger 2001-2017
</metadata>
<g transform="translate(0.000000,270.000000) scale(0.100000,-0.100000)"
fill="#000000" stroke="none">
<path d="M1281 2655 c-1 -6 -26 -10 -61 -8 -41 1 -60 -2 -60 -10 0 -8 -3 -8
-9 2 -6 9 -11 10 -15 2 -4 -6 -13 -11 -19 -11 -7 0 -6 4 3 10 9 6 10 10 3 10
-6 0 -14 -4 -18 -10 -3 -5 -12 -7 -20 -3 -9 3 -15 -1 -15 -8 0 -11 -3 -11 -10
1 -6 9 -10 11 -10 3 0 -7 -7 -10 -15 -7 -9 4 -15 0 -15 -7 0 -11 -3 -11 -10 1
-7 11 -10 11 -10 2 0 -7 -4 -11 -9 -8 -5 4 -12 0 -14 -6 -4 -10 -6 -10 -6 -1
-1 9 -8 10 -26 3 -14 -5 -25 -7 -25 -5 0 3 -10 -1 -23 -10 -13 -8 -27 -12 -30
-9 -4 4 -13 2 -20 -5 -8 -6 -26 -12 -40 -13 -14 -1 -23 -6 -21 -10 3 -4 -4 -8
-15 -8 -34 0 -36 -1 -44 -15 -4 -8 -13 -12 -20 -9 -7 2 -22 -4 -32 -16 -10
-11 -24 -20 -32 -20 -7 0 -16 -7 -19 -15 -4 -8 -10 -12 -15 -9 -5 3 -12 -2
-15 -11 -4 -9 -13 -14 -20 -11 -8 3 -13 0 -11 -7 1 -7 -4 -11 -11 -9 -7 1 -15
-5 -18 -13 -4 -8 -13 -15 -20 -15 -8 0 -17 -7 -20 -15 -4 -8 -10 -12 -15 -9
-5 3 -6 -2 -3 -11 4 -10 2 -15 -7 -13 -7 2 -18 -7 -24 -19 -5 -13 -15 -23 -22
-23 -13 0 -39 -39 -35 -53 2 -5 -3 -7 -10 -5 -7 3 -21 -13 -31 -34 -11 -21
-23 -38 -29 -38 -5 0 -6 -4 -3 -10 3 -5 1 -10 -4 -10 -6 0 -10 -3 -10 -7 3
-21 -2 -33 -13 -27 -6 4 -8 3 -4 -4 3 -6 2 -13 -4 -17 -6 -4 -8 -11 -5 -16 4
-5 2 -9 -4 -9 -6 0 -7 -7 -4 -17 4 -10 2 -14 -4 -10 -11 7 -22 -32 -26 -90 -1
-17 -6 -29 -11 -25 -5 3 -7 -2 -3 -11 3 -9 1 -19 -5 -23 -7 -4 -6 -9 3 -15 10
-6 11 -9 2 -9 -15 0 -13 -21 2 -32 6 -5 6 -8 -1 -8 -6 0 -11 -13 -11 -30 0
-18 4 -27 11 -23 6 4 5 -1 -3 -10 -7 -9 -9 -17 -3 -17 5 0 10 -6 9 -12 -1 -47
4 -69 15 -62 10 5 10 4 1 -6 -10 -11 -9 -16 5 -27 10 -9 11 -12 2 -7 -13 7
-13 5 -2 -9 8 -9 11 -20 8 -26 -3 -5 -1 -11 6 -13 19 -7 17 -47 -4 -54 -10 -3
-16 -10 -13 -15 4 -5 -1 -9 -10 -9 -9 0 -14 -4 -11 -8 3 -5 -4 -15 -15 -22
-10 -8 -19 -18 -19 -23 0 -4 -9 -17 -20 -29 -11 -12 -20 -28 -20 -37 0 -8 -3
-11 -7 -8 -7 8 -39 -34 -35 -45 1 -5 -2 -8 -8 -8 -5 0 -10 -6 -10 -14 0 -8 -5
-16 -11 -18 -5 -2 -11 -11 -13 -21 -1 -10 -10 -26 -19 -37 -11 -13 -12 -20 -4
-24 9 -3 8 -5 -1 -5 -7 -1 -10 -5 -7 -11 3 -5 1 -10 -6 -10 -9 0 -9 -3 0 -14
9 -11 9 -15 -1 -19 -9 -4 -10 -8 -2 -14 6 -4 10 -18 9 -30 -1 -12 3 -21 9 -20
6 1 10 -3 9 -10 -2 -6 6 -15 17 -18 12 -4 17 -11 14 -18 -4 -7 -4 -9 1 -5 4 4
14 3 22 -3 7 -6 13 -9 13 -5 0 3 9 -3 21 -15 11 -11 27 -18 35 -15 8 3 14 1
14 -4 0 -6 3 -9 8 -9 21 4 30 -3 34 -26 3 -14 2 -25 -3 -25 -4 0 -5 -12 -2
-27 3 -16 5 -37 5 -48 -1 -11 4 -23 11 -27 9 -6 8 -8 -2 -8 -11 0 -11 -3 0
-17 12 -14 12 -15 0 -9 -8 6 -7 0 4 -18 10 -14 13 -26 9 -26 -5 0 -3 -4 3 -8
7 -5 14 -20 15 -34 1 -15 5 -25 9 -22 7 4 17 -18 20 -41 0 -5 5 -18 11 -29 7
-13 7 -16 -1 -12 -15 10 -14 -7 1 -22 9 -9 8 -12 -7 -12 -19 -1 -19 -1 -1 -11
15 -9 16 -13 5 -20 -8 -5 -9 -9 -3 -9 6 0 10 -10 9 -23 -1 -12 3 -28 9 -36 9
-12 8 -13 -4 -6 -12 6 -13 5 -2 -6 6 -7 12 -26 12 -41 0 -15 5 -28 11 -28 5 0
7 -4 4 -10 -3 -5 -2 -10 4 -10 5 0 8 -9 6 -20 -2 -12 2 -20 10 -20 7 0 12 -8
11 -18 -2 -9 7 -27 20 -39 13 -12 24 -25 24 -28 0 -11 27 -34 33 -28 3 3 13
-2 22 -11 9 -9 23 -16 31 -16 8 0 13 -4 10 -9 -4 -5 3 -7 14 -4 11 3 20 0 20
-6 0 -6 8 -8 23 -3 28 9 58 8 75 -1 6 -5 12 -4 12 2 0 6 3 10 8 10 4 -1 9 -1
12 0 5 2 60 10 88 13 6 1 12 6 12 11 0 5 9 7 20 4 12 -3 18 -1 14 5 -3 5 2 9
12 8 27 -3 65 11 58 21 -3 5 1 6 9 3 8 -3 18 0 22 5 3 6 11 9 16 6 5 -4 9 -1
9 5 0 6 5 8 10 5 6 -3 10 -1 10 5 0 6 4 9 9 5 5 -3 12 -1 16 4 3 5 14 9 25 8
10 -1 16 -5 14 -9 -3 -5 2 -11 10 -14 9 -3 16 -13 16 -21 0 -8 4 -12 9 -9 5 3
11 -1 15 -9 3 -8 12 -15 21 -15 8 0 15 -4 15 -9 0 -5 13 -14 30 -21 16 -7 27
-16 24 -21 -3 -5 1 -6 9 -3 8 3 20 -2 27 -10 7 -9 16 -13 21 -10 5 3 19 -1 31
-8 24 -14 30 -15 66 -17 13 0 21 -5 18 -10 -3 -4 2 -8 12 -8 44 0 63 -4 58
-11 -3 -4 15 -8 40 -7 24 0 44 -3 44 -7 0 -4 7 -4 17 -1 10 4 14 2 10 -4 -4
-6 12 -9 44 -9 36 1 48 -2 45 -11 -4 -10 -1 -10 15 0 16 10 21 9 29 -3 5 -8
10 -10 10 -4 0 14 32 13 43 -1 4 -6 11 -4 17 5 5 8 10 10 10 5 0 -6 16 -11 35
-12 22 0 32 3 28 10 -4 6 -1 7 8 1 20 -12 59 -12 59 1 0 5 5 3 10 -5 9 -13 10
-13 10 0 0 13 1 13 10 0 5 -8 10 -10 10 -3 0 6 11 10 25 8 14 -1 25 2 25 7 0
6 7 8 15 5 8 -4 17 -2 21 4 3 6 11 8 17 6 7 -2 24 5 40 15 15 11 27 16 27 12
0 -4 8 3 19 14 10 12 21 19 25 15 3 -3 6 1 6 11 0 9 5 14 10 11 6 -3 10 3 10
15 0 12 4 19 8 16 9 -5 11 3 15 49 1 14 8 25 17 25 12 1 12 3 -2 10 -10 6 -15
19 -13 30 2 11 -1 20 -8 20 -8 0 -8 3 0 11 9 9 8 15 -2 26 -8 7 -12 20 -9 28
4 8 2 15 -3 15 -5 0 -9 10 -10 22 -1 11 -8 25 -15 29 -10 7 -10 9 2 9 12 0 13
2 1 9 -7 5 -11 13 -7 19 3 6 1 12 -5 14 -7 2 -13 16 -15 31 -2 18 1 25 9 21 7
-3 5 0 -4 8 -9 7 -14 19 -12 26 3 6 0 12 -5 12 -5 0 -9 27 -8 59 0 33 -2 57
-6 54 -5 -2 -8 0 -8 6 0 5 6 12 13 14 7 3 4 6 -6 6 -17 1 -17 3 -3 16 8 9 13
22 9 30 -3 9 0 22 7 30 10 12 10 15 -1 15 -12 0 -12 2 0 9 7 5 10 14 7 20 -4
6 -2 11 4 11 6 0 9 14 7 36 -3 24 -1 34 8 31 8 -4 11 5 10 24 -1 16 2 29 7 29
5 0 6 5 3 10 -3 6 -2 10 4 10 5 0 8 11 6 25 -1 14 4 29 12 33 7 5 15 19 18 32
2 13 10 27 16 30 6 4 10 11 10 16 -2 19 11 44 21 44 6 0 9 3 5 6 -3 4 0 19 8
34 8 15 11 30 8 34 -4 3 -1 6 6 6 7 0 9 5 6 10 -3 6 -1 10 5 10 7 0 10 7 6 15
-3 8 -2 15 3 15 8 0 24 38 22 53 -1 4 3 7 9 7 5 0 7 7 4 15 -4 8 -1 15 4 15 6
0 9 9 7 20 -2 11 2 20 8 20 7 0 6 4 -3 10 -11 7 -11 10 -2 10 7 0 11 4 7 9 -3
5 -1 12 4 15 5 3 8 19 7 36 -1 16 1 30 5 30 4 0 5 14 2 31 -2 17 -1 29 5 26 5
-4 9 0 9 8 0 8 -5 15 -10 15 -5 0 -3 8 4 17 9 11 10 14 2 9 -9 -5 -11 -2 -7 8
3 9 11 16 18 16 6 0 3 5 -7 11 -14 8 -15 14 -6 31 6 11 7 23 3 27 -13 9 -16
34 -4 26 5 -3 10 -1 10 4 0 6 -5 11 -10 11 -7 0 -7 7 1 21 9 17 8 20 -2 14 -8
-6 -11 -4 -6 7 3 9 0 21 -6 27 -8 8 -8 11 2 11 10 0 11 3 2 13 -6 8 -8 17 -4
21 4 4 1 11 -7 16 -11 7 -12 10 -2 10 7 0 10 5 7 10 -4 6 -12 7 -18 3 -7 -4
-6 0 2 10 7 9 9 17 3 17 -5 0 -8 9 -5 20 3 11 0 20 -6 20 -6 0 -11 11 -11 24
0 13 -5 26 -10 28 -6 2 -12 13 -13 26 0 12 -5 22 -9 22 -4 0 -8 9 -8 20 0 11
-4 20 -10 20 -5 0 -10 7 -10 15 0 8 -4 15 -10 15 -5 0 -10 9 -10 21 0 11 -4
18 -9 14 -5 -3 -12 3 -16 14 -3 10 -23 37 -45 59 -22 22 -40 45 -40 51 0 6 -4
11 -9 11 -5 0 -23 15 -41 33 -18 17 -29 25 -25 17 5 -8 -7 0 -25 18 -19 18
-40 30 -47 28 -7 -3 -15 0 -19 6 -5 7 -2 8 6 3 9 -5 11 -4 6 3 -4 7 -16 12
-27 12 -10 0 -19 5 -19 10 0 6 -9 10 -20 10 -11 0 -20 5 -20 10 0 6 -9 10 -19
10 -11 0 -23 5 -26 10 -3 6 -15 10 -26 10 -10 0 -19 5 -19 10 0 6 -13 10 -30
10 -16 0 -30 5 -30 11 0 6 -9 9 -19 6 -12 -3 -22 1 -25 10 -3 8 -11 11 -16 8
-6 -4 -17 -1 -25 5 -12 10 -15 10 -15 0 0 -9 -3 -10 -13 -1 -8 6 -17 8 -20 4
-4 -3 -7 -1 -7 5 0 7 -5 12 -11 12 -5 0 -7 -6 -3 -12 4 -8 -1 -7 -12 2 -11 9
-38 15 -66 15 -27 0 -48 2 -48 6 0 3 -32 6 -70 5 -39 0 -72 4 -74 9 -3 6 -5 6
-5 0z"/>
</g>
</svg>
